<?xml version="1.0" encoding="utf-8"?>
<svg xmlns="http://www.w3.org/2000/svg" xmlns:xlink="http://www.w3.org/1999/xlink" id="body_1" width="100" height="100">

<g transform="matrix(1.4925373 0 0 1.4925373 0 0)">
    <g transform="matrix(1 0 0 1 0 0.5)">
    </g>
    <path transform="matrix(1 0 0 1 0 0.5)"  d="M57.1688 9.66977C 50.8366 3.43256 42.4361 0 33.4832 0C 24.5302 0 16.1298 3.43256 9.79755 9.66977C -2.44191 21.7256 -3.29187 41.0233 7.68681 54.0419C 6.61019 56.1767 4.88194 58.6605 2.31788 59.9023C 1.08544 60.5023 0.391302 61.8 0.603792 63.1395C 0.816283 64.4791 1.86457 65.5256 3.22451 65.7349C 3.86198 65.8326 4.76861 65.9302 5.87356 65.9302C 8.83426 65.9302 13.1974 65.2465 17.6597 62.0791C 22.632 64.7163 28.0717 66 33.469 66C 42.1386 66 50.7232 62.693 57.1829 56.3302C 63.5152 50.093 67 41.8186 67 33C 67 24.1814 63.501 15.907 57.1688 9.66977zM54.4631 53.6651C 44.901 63.0837 30.0975 64.9535 18.453 58.214C 17.688 57.7674 16.7389 57.907 16.1298 58.507C 16.0731 58.5349 16.0164 58.5767 15.9739 58.6186C 12.1349 61.5488 8.36678 62.1628 5.87356 62.1628L5.87356 62.1628L5.85939 62.1628C 8.7351 60.0977 10.5483 57.0279 11.6108 54.6419C 11.7808 54.2372 11.8091 53.8186 11.71 53.4279C 11.6675 53.0512 11.5116 52.6744 11.2425 52.3674C 0.872947 40.8279 1.41126 23.2465 12.4891 12.3349C 24.0627 0.934884 42.8894 0.934884 54.4489 12.3349C 66.0367 23.7349 66.0367 42.2651 54.4631 53.6651z" stroke="none" fill="#FFFFFF" fill-rule="nonzero" />
    <g transform="matrix(1 0 0 1 31 31.5)">
    </g>
    <path transform="matrix(1 0 0 1 31 31.5)"  d="M2.5 5C 3.88071 5 5 3.88071 5 2.5C 5 1.11929 3.88071 0 2.5 0C 1.11929 0 0 1.11929 0 2.5C 0 3.88071 1.11929 5 2.5 5z" stroke="none" fill="#FFFFFF" fill-rule="nonzero" />
    <g transform="matrix(1 0 0 1 43 31.5)">
    </g>
    <path transform="matrix(1 0 0 1 43 31.5)"  d="M2.5 5C 3.88071 5 5 3.88071 5 2.5C 5 1.11929 3.88071 0 2.5 0C 1.11929 0 0 1.11929 0 2.5C 0 3.88071 1.11929 5 2.5 5z" stroke="none" fill="#FFFFFF" fill-rule="nonzero" />
    <g transform="matrix(1 0 0 1 19 31.5)">
    </g>
    <path transform="matrix(1 0 0 1 19 31.5)"  d="M2.5 5C 3.88071 5 5 3.88071 5 2.5C 5 1.11929 3.88071 0 2.5 0C 1.11929 0 0 1.11929 0 2.5C 0 3.88071 1.11929 5 2.5 5z" stroke="none" fill="#FFFFFF" fill-rule="nonzero" />
</g>
</svg>
